<svg xmlns="http://www.w3.org/2000/svg" width="300" height="80" viewBox="0 0 150 40">
  <defs>
    <style>
      .cls-1 {
        fill: red;
        fill-rule: evenodd;
      }
    </style>
  </defs>
  <path id="Комус" class="cls-1" d="M631.394,1164a6.2,6.2,0,1,1-5.862,8.15l-8.022,9L630,1194.85l6.6-5.7a13.841,13.841,0,0,1,22.067-15.2L637.9,1191.83l0-.01-8.144,7.02-12.514-13.7v11.13L600,1204v-31.23l17.241-7.72v11.6l9.3-10.29a7,7,0,0,1,4.854-2.36h0Zm28.831,11.55a13.811,13.811,0,0,1,3.214,8.89q0,0.465-.032.93l10.883-12.28,1.06-1.2,8.085,12.32,9.458-10.67-0.249.52,1.915-2.17,9.849,15.01-0.07.07a5.97,5.97,0,0,1,8.909,3.42l1.332-1.42-11.336-16.85h16.7l4.289,6.54,2.4-2.57v0.01a14.426,14.426,0,0,1,10.748-5.53c6.279,0,10.281,3.2,11.6,8.23a5.87,5.87,0,0,1,.19.83h0a5.631,5.631,0,1,1-11.194.85c0-.09,0-0.19.007-0.28l-9.455,9.67a10.783,10.783,0,0,0,18.52.26H750a13.827,13.827,0,0,1-26.448-5.69c0-.1,0-0.19,0-0.29l-11.3,11.55a5.981,5.981,0,0,1-10.741-3.64,6.014,6.014,0,0,1,.739-2.89l-8.036,8.51-7.806-11.69-11.4,11.69-7.7-11.53-7.643,7.8h0a13.8,13.8,0,0,1-20.375-.27l20.929-18.13h0Zm-7.24,9.73a4.87,4.87,0,1,1-4.857,4.87,4.863,4.863,0,0,1,4.857-4.87h0Z" transform="translate(-600 -1164)"/>
</svg>
