<svg xmlns="http://www.w3.org/2000/svg" width="298.562" height="59.06" viewBox="0 0 149.281 29.53">
  <defs>
    <style>
      .cls-1 {
        fill: #9d101f;
        fill-rule: evenodd;
      }
    </style>
  </defs>
  <path id="Marriott" class="cls-1" d="M940.663,1188.42c-1.49-.79-1.722-3.04-1.688-8.52l0.035-8.38-2.829-.01,0.636-1.55h2.193v-3.97l5.25-1.99,0,5.83h2.407l-0.634,1.72h-1.77l-0.01,14.51a3.38,3.38,0,0,0,1.049,2.36h-4.636Zm-132-14.27c0.534,1.5,1.741,3.04.882,4.77a4.817,4.817,0,0,1-3.761,3.47,6.378,6.378,0,0,1-4.83-1.26,12.368,12.368,0,0,1,4.992-12.58l2.717,5.6h0Zm6.931,15.48c-0.894,3.07-9.775,1.06-12.562-3.99,3.658,0.42,7.778-2.9,7.849-6.67l4.713,10.66h0Zm3.634-.4a2.306,2.306,0,0,0,1.427-1.49l-9.554-21.19a2.2,2.2,0,0,0-1.916.45l10.043,22.23h0Zm4.3-4.6c4.062-6.29.638-16.62-8.116-18.07l8.116,18.07h0Zm76.04-14.02a3.713,3.713,0,0,1,3.751-.32,3.2,3.2,0,0,1,1.192.97l-2.116,3.36a3.627,3.627,0,0,0-.807-0.49,2.625,2.625,0,0,0-2.789.39v9.81c-0.014,1.7.274,3.25,1.134,4.06H895.12a4.274,4.274,0,0,1-1.346-3.15l-0.039-13.05a2.905,2.905,0,0,0-.635-2.11l4.981,0.02a2.8,2.8,0,0,1,.635,1.2l0.846-.69h0Zm6.078,3.22c-0.039-1.24.231-2.72-.563-3.79H909.7a1.8,1.8,0,0,1,.576,1,3.58,3.58,0,0,1,.346,1.2l0.039,13.9a5.031,5.031,0,0,0,1.1,2.31l-4.943.01c-1.615-1.59-1.087-4.22-1.212-6.94l0.039-7.69h0Zm12.117,9.97c0.23,0.87.673,1.93,1.693,2.05a1.877,1.877,0,0,0,1.384-.93c1.077-2.16.923-4.52,0.923-6.98-0.346-1.83.077-4.32-1.846-5.44a1.511,1.511,0,0,0-1.616.64,7.45,7.45,0,0,0-.884,3.97,26.113,26.113,0,0,0,.346,6.69h0Zm-4.808-9.83c0.5-1.42,2.058-2.12,3.193-2.89,1.731-.65,3.634-2.26,5.577-0.94a12.969,12.969,0,0,1,4.058,3.97,17.876,17.876,0,0,1,.539,2.06c0,0.93.192,1.62,0.172,2.54a24.021,24.021,0,0,1,0,2.89,6.065,6.065,0,0,1-2.115,4.33c-1.923,1.75-4.347,3.73-6.962,2.38-2.347-1.12-5.117-3.35-4.943-6.4a32.454,32.454,0,0,1,.1-6.13,5.092,5.092,0,0,1,.384-1.81h0Zm16.963,14.45c-1.49-.79-1.722-3.04-1.688-8.52l0.034-8.38-2.827-.01,0.635-1.55h2.192v-3.97l5.25-1.99,0,5.83h2.407l-0.634,1.72h-1.771l-0.009,14.51a3.384,3.384,0,0,0,1.048,2.36h-4.635Zm-48-16.23a3.276,3.276,0,0,0-.636-2.11l4.983,0.02a2.829,2.829,0,0,1,.634,1.2l0.847-.69a3.711,3.711,0,0,1,3.75-.32,3.21,3.21,0,0,1,1.192.97l-2.115,3.36a3.635,3.635,0,0,0-.808-0.49,2.627,2.627,0,0,0-2.79.39v9.81c-0.014,1.7.275,3.25,1.136,4.06h-4.808a4.025,4.025,0,0,1-1.347-3.15l-0.038-13.05h0Zm-37.678,5.16-1.821,3.81c-1.235,2.25-2.969,5-5.63,5.69a6.753,6.753,0,0,1-2.935-.04l-3.21,5.37a2.46,2.46,0,0,0,.91.62c5.647,2.2,7.921-.17,13.483-13.02l5.254,11.45h6.994l-3.3-7.73,1.871-3.99,5.166,11.54,6.7,0.04-11.716-26.32-5.4,2.74,4.229,9.82-1.854,3.87-7.749-17.11-5.686,2.96,4.7,10.3h0Zm30.331,0.94a0.8,0.8,0,0,0-.924-0.82,4.22,4.22,0,0,0-2.788,2.24,5.54,5.54,0,0,0-.674,2.54,4.441,4.441,0,0,0,.289,2.2,1.494,1.494,0,0,0,1.019.75,2.655,2.655,0,0,0,2.077-.47c1.4-.81,1.154-2.42,1.173-3.86l-0.172-2.58h0Zm-8.828,3.7a5.769,5.769,0,0,1,2.885-4.66c1.712-1.08,3.712-1.51,5.481-2.45a1.6,1.6,0,0,0,.712-0.99,1.06,1.06,0,0,0-.673-1.08c-2.693-.59-4.924,1.14-6.886,2.85a15.468,15.468,0,0,1,1.019-3.81,4.525,4.525,0,0,1,.847-0.99,12.589,12.589,0,0,1,6.424-1.08,4.718,4.718,0,0,1,3.961,3.03,8.069,8.069,0,0,1,.347,2.42l0.019,10.66a4.574,4.574,0,0,0,.981,2.53h-4.982a3.6,3.6,0,0,1-1.057-2.1c-1.394,1.26-4.3,3.13-6.04,1.89a6.273,6.273,0,0,1-3.038-6.22h0Zm82.161,4.52v-0.53h0.384c0.255,0,.324.08,0.324,0.24s-0.069.28-.37,0.29h-0.338Zm0.269,0.33a0.427,0.427,0,0,1,.3.08,0.847,0.847,0,0,1,.116.45c0.013,0.12.046,0.26,0.069,0.37h0.408a2.775,2.775,0,0,1-.121-0.6,0.37,0.37,0,0,0-.347-0.41v-0.01a0.485,0.485,0,0,0,.417-0.49,0.618,0.618,0,0,0-.764-0.58h-0.663v2.09h0.32v-0.9h0.269Zm0.1,1.67a1.78,1.78,0,1,0-1.746-1.79,1.761,1.761,0,0,0,1.746,1.79h0Zm0-.32a1.465,1.465,0,1,1,1.431-1.47,1.45,1.45,0,0,1-1.431,1.47h0Z" transform="translate(-800.719 -1164)"/>
</svg>
