<svg xmlns="http://www.w3.org/2000/svg" width="300" height="56" viewBox="0 0 150 28">
  <defs>
    <style>
      .cls-1 {
        fill: #1475c7;
        fill-rule: evenodd;
      }
    </style>
  </defs>
  <path id="Philips" class="cls-1" d="M250.883,1164.56h-8.057v10.68h-8.389v-10.68h-8.058v26.88h8.058v-10.57h8.389v10.57h8.057v-26.88h0Zm28.035,21.48v-21.48H270.86v26.88h14.571l1.213-5.4h-7.726ZM264.9,1164.56h-8.057v26.88H264.9v-26.88h0Zm32.672,0h-8.057v26.88h8.057v-26.88h0Zm39.732,6.86c0-1.46,1.437-2.14,3.753-2.14a19.872,19.872,0,0,1,7.175,1.36l-0.661-5.85a30.973,30.973,0,0,0-7.4-.79c-6.513,0-10.926,2.62-10.926,8.1,0,9.44,12.585,7.53,12.585,11.92,0,1.68-1.217,2.58-4.2,2.58a23.7,23.7,0,0,1-9.159-2.14l0.885,6.19a26.207,26.207,0,0,0,8.388,1.35c6.731,0,12.251-2.25,12.251-9,0-8.99-12.7-7.31-12.7-11.58h0Zm-22.732,13.61c7.5,0,12.248-3.94,12.248-10.8,0-7.53-5.076-10.23-13.354-10.23a88.487,88.487,0,0,0-9.825.56v26.88h8.06v-6.41h2.871Zm4.3-10.69c0,3.49-1.654,5.85-5.85,5.85H311.7v-11.1c0.468-.03.908-0.03,1.322-0.03,3.973,0,5.85,1.91,5.85,5.28h0Zm-107.946,10.69c7.506,0,12.252-3.94,12.252-10.8,0-7.53-5.078-10.23-13.355-10.23a88.483,88.483,0,0,0-9.824.56v26.88h8.056v-6.41h2.871Zm4.306-10.69c0,3.49-1.656,5.85-5.851,5.85h-1.326v-11.1c0.472-.03.912-0.03,1.326-0.03,3.972,0,5.851,1.91,5.851,5.28h0Z" transform="translate(-200 -1164)"/>
</svg>
